<?xml version="1.0" standalone="no"?>
<!DOCTYPE svg PUBLIC "-//W3C//DTD SVG 20010904//EN"
 "http://www.w3.org/TR/2001/REC-SVG-20010904/DTD/svg10.dtd">
<svg version="1.0" xmlns="http://www.w3.org/2000/svg"
 width="2048.000000pt" height="1767.000000pt" viewBox="0 0 2048.000000 1767.000000"
 preserveAspectRatio="xMidYMid meet">
<metadata>
Created by potrace 1.16, written by Peter Selinger 2001-2019
</metadata>
<g transform="translate(0.000000,1767.000000) scale(0.100000,-0.100000)"
fill="#000000" stroke="none">
<path d="M4875 16259 c-22 -5 -65 -13 -95 -18 -131 -21 -293 -69 -397 -117
-29 -13 -62 -29 -75 -34 -13 -5 -50 -26 -83 -45 -33 -19 -67 -38 -75 -42 -8
-4 -21 -13 -28 -20 -7 -7 -36 -28 -65 -47 -168 -112 -379 -350 -458 -517 -13
-27 -27 -49 -31 -49 -5 0 -8 -8 -8 -18 0 -10 -6 -26 -14 -37 -18 -27 -81 -221
-103 -320 -17 -76 -18 -364 -18 -6275 0 -5995 1 -6198 19 -6275 39 -169 110
-356 174 -457 9 -14 30 -48 46 -75 16 -26 32 -50 35 -53 4 -3 30 -34 58 -70
46 -59 152 -166 228 -229 34 -29 211 -151 219 -151 3 0 27 -13 53 -28 89 -52
205 -96 408 -156 28 -8 79 -18 115 -22 36 -3 70 -11 76 -15 6 -5 951 -10 2125
-11 l2114 -3 -3 -25 c-6 -44 -77 -183 -123 -240 -87 -109 -213 -212 -351 -284
-44 -23 -80 -47 -81 -52 -3 -22 245 -170 363 -216 176 -70 317 -98 490 -98
159 0 276 19 435 68 49 15 187 74 235 101 100 55 116 64 131 77 8 8 19 14 24
14 22 0 201 144 312 251 45 43 86 79 92 79 37 0 3 -132 -65 -251 -19 -34 -34
-63 -34 -67 0 -3 -10 -19 -23 -36 -34 -46 -67 -105 -67 -121 0 -37 344 -26
455 15 11 4 45 15 75 25 225 74 444 234 625 459 48 59 156 218 191 281 11 20
25 20 965 23 525 1 960 0 966 -3 8 -2 -11 -26 -44 -57 -32 -29 -67 -62 -78
-73 -12 -11 -48 -44 -81 -74 -32 -30 -111 -102 -174 -161 -63 -59 -133 -123
-156 -143 -61 -54 -88 -115 -88 -195 1 -104 50 -179 141 -217 42 -18 133 -19
182 -4 51 16 113 40 133 50 10 5 26 9 36 9 10 0 22 4 28 8 5 5 36 17 69 27 33
11 65 22 70 25 6 4 30 12 55 19 52 15 71 22 123 45 21 9 46 16 57 16 10 0 21
4 24 9 3 5 16 11 28 14 13 3 88 28 168 57 80 29 155 54 168 57 12 3 25 9 28
14 3 5 15 9 28 9 12 0 25 3 29 6 5 6 163 62 277 100 25 8 53 19 62 24 10 6 24
10 33 10 8 0 29 7 47 15 18 8 80 30 138 50 58 20 113 41 122 46 10 5 27 9 37
9 11 0 22 4 25 9 3 5 16 11 28 14 13 3 75 24 138 46 63 23 153 55 200 71 47
16 137 47 200 70 63 22 140 49 170 59 30 11 87 31 125 46 39 15 84 31 100 35
17 4 82 27 145 50 63 23 135 48 160 56 25 8 54 19 65 24 11 4 45 18 76 30 251
96 452 322 532 594 32 111 30 338 -6 511 -15 72 -32 155 -37 185 -6 30 -15 75
-20 100 -5 25 -16 86 -25 135 -9 50 -20 108 -25 130 -5 22 -11 56 -14 75 -3
19 -13 69 -21 110 -9 41 -21 102 -26 135 -6 33 -14 80 -18 105 -5 25 -18 92
-29 150 -23 112 -36 178 -52 263 -5 28 -17 88 -25 132 -9 44 -21 105 -26 135
-6 30 -14 75 -19 100 -5 25 -21 108 -35 185 -14 77 -33 174 -41 215 -8 41 -17
85 -20 98 -7 36 -6 37 -188 -105 -22 -18 -61 -47 -86 -64 -25 -18 -58 -44 -75
-59 -16 -14 -40 -33 -52 -41 -17 -11 -257 -197 -313 -242 -8 -7 -60 -46 -115
-87 -55 -41 -102 -77 -105 -80 -3 -4 -32 -26 -64 -51 -33 -24 -78 -58 -100
-76 -23 -17 -77 -58 -121 -92 -44 -33 -84 -64 -90 -68 -10 -9 -235 -179 -424
-320 -53 -40 -132 -97 -176 -127 -44 -31 -102 -73 -130 -96 -27 -22 -86 -67
-130 -100 -44 -34 -93 -71 -109 -83 -16 -12 -76 -57 -135 -99 -58 -43 -117
-86 -131 -98 -14 -11 -30 -20 -35 -20 -14 0 -292 274 -1515 1494 -925 924
-1040 1042 -1032 1060 10 22 43 67 279 384 79 106 154 210 166 230 11 20 40
62 62 92 23 30 102 136 175 235 74 99 137 182 140 185 4 3 31 39 60 80 29 41
56 77 59 80 3 3 47 59 97 125 161 214 570 747 686 895 15 19 69 89 120 155 50
66 96 123 102 128 19 13 -16 27 -71 27 -45 0 -211 26 -378 59 -27 6 -63 12
-80 14 -35 5 -217 41 -292 58 -81 19 -132 76 -200 224 -17 37 -18 83 -21 590
-3 532 2 678 28 722 5 10 14 29 20 43 35 88 180 217 290 259 80 30 149 34 670
38 657 4 738 -1 858 -59 63 -30 101 -56 151 -106 106 -107 151 -219 151 -377
0 -115 6 -115 122 6 336 344 840 784 1110 967 26 18 50 36 53 42 7 12 7 4377
-1 4432 -8 64 -35 190 -45 213 -4 11 -13 39 -19 62 -6 23 -15 45 -20 48 -6 3
-10 15 -10 25 0 21 -92 204 -116 231 -8 8 -14 19 -14 23 0 6 -39 65 -50 76 -3
3 -29 34 -57 70 -51 65 -164 177 -238 237 -155 123 -389 244 -575 296 -30 9
-80 23 -111 31 -31 9 -69 16 -85 16 -16 1 -56 7 -89 15 -52 13 -696 15 -4820
14 -2767 -1 -4777 -5 -4800 -10z m9525 -1217 c65 -23 134 -76 176 -133 67 -92
64 -2 64 -1834 -1 -1736 0 -1708 -44 -1793 -42 -82 -160 -162 -256 -175 -81
-11 -9301 -9 -9350 2 -25 5 -63 19 -85 30 -45 22 -122 92 -136 124 -5 12 -13
29 -18 37 -5 8 -16 38 -25 65 -15 45 -16 206 -16 1723 0 1464 2 1677 15 1709
8 19 15 42 15 50 0 15 28 58 70 106 14 16 54 45 90 65 52 30 78 38 135 42 39
3 2151 4 4695 2 4280 -3 4628 -4 4670 -20z m-8285 -5041 c394 -8 364 -4 485
-60 84 -39 173 -123 218 -207 61 -115 57 -62 57 -729 0 -664 4 -613 -54 -734
-24 -51 -128 -153 -196 -192 -125 -73 -106 -71 -759 -82 -547 -10 -595 -9
-680 7 -50 10 -111 25 -136 34 -53 19 -165 93 -194 129 -12 14 -29 34 -38 44
-10 10 -18 23 -18 28 0 5 -7 11 -15 15 -8 3 -15 13 -15 23 0 10 -7 27 -15 37
-8 11 -15 30 -15 42 0 12 -7 38 -15 57 -13 31 -15 121 -15 592 0 471 2 561 15
592 8 19 15 46 15 58 0 12 7 28 15 35 8 7 15 19 15 27 0 17 77 119 112 148 42
35 87 65 96 65 5 0 15 7 22 15 7 8 22 15 34 15 11 0 30 7 40 15 11 8 36 15 55
16 20 0 45 4 56 9 25 11 435 11 930 1z m4223 -11 c30 -5 92 -28 138 -51 130
-65 219 -168 263 -307 21 -66 21 -78 19 -627 l-3 -559 -25 -12 c-14 -7 -68
-28 -121 -48 -165 -63 -324 -186 -414 -321 -19 -30 -43 -56 -53 -59 -9 -3
-235 -8 -502 -12 -438 -6 -495 -5 -580 11 -52 9 -109 23 -127 31 -17 8 -34 14
-37 14 -16 0 -117 71 -157 111 -43 42 -59 63 -78 106 -5 11 -14 24 -20 27 -5
3 -13 21 -16 39 -4 17 -12 38 -19 46 -8 10 -11 184 -11 625 0 563 1 613 17
641 10 17 18 37 18 46 0 9 7 22 15 29 8 7 15 18 15 25 0 18 130 155 147 155 7
0 13 4 13 9 0 5 12 14 28 20 15 6 34 15 42 20 26 16 93 39 145 49 60 13 1221
5 1303 -8z m-3800 -2887 c126 -54 204 -114 261 -203 83 -127 82 -125 79 -796
l-3 -589 -33 -66 c-34 -70 -47 -88 -115 -157 -43 -45 -144 -112 -169 -112 -8
0 -18 -4 -23 -9 -33 -31 -132 -36 -750 -36 -640 0 -652 1 -742 41 -17 8 -36
14 -42 14 -6 0 -11 4 -11 9 0 5 -11 13 -24 18 -55 19 -196 167 -196 206 0 8
-7 20 -15 27 -8 7 -15 23 -15 37 0 13 -7 40 -15 60 -22 52 -22 1145 0 1183 8
14 14 35 15 47 0 24 39 106 52 111 4 2 8 9 8 16 0 22 135 140 191 167 95 47
113 53 179 60 36 4 342 6 680 5 l615 -2 73 -31z m3279 21 c3 -9 1 -30 -5 -47
-40 -121 -94 -275 -102 -292 -5 -11 -16 -40 -24 -65 -8 -25 -38 -110 -66 -190
-29 -80 -60 -170 -70 -200 -11 -30 -38 -107 -60 -170 -23 -63 -50 -140 -60
-170 -10 -30 -35 -100 -55 -155 -20 -55 -45 -127 -56 -160 -11 -33 -24 -68
-30 -77 -5 -10 -9 -26 -9 -36 0 -10 -4 -22 -9 -27 -5 -6 -28 -64 -50 -130 -23
-66 -54 -154 -69 -195 l-28 -75 -39 1 c-77 3 -216 52 -271 96 -54 42 -147 144
-156 169 -5 16 -14 29 -19 29 -5 0 -9 8 -9 18 0 9 -8 31 -18 47 -16 28 -17 78
-17 640 0 562 1 612 17 640 10 17 18 36 18 43 0 23 72 125 119 169 44 42 153
113 173 113 5 0 24 7 41 15 42 19 86 21 500 23 309 2 348 0 354 -14z m943
-1375 c0 -176 -9 -241 -41 -299 -5 -8 -16 -31 -26 -50 -9 -19 -47 -65 -83
-102 -114 -115 -263 -168 -472 -168 -106 0 -121 5 -95 32 6 7 107 117 222 243
250 275 207 228 340 370 61 64 117 126 125 136 8 10 18 19 23 19 4 0 7 -82 7
-181z m-4277 -1495 c169 -51 282 -144 360 -296 l32 -63 0 -620 c0 -675 4 -616
-53 -735 -30 -60 -150 -172 -224 -208 -121 -58 -102 -56 -801 -59 -563 -3
-651 -1 -677 12 -16 8 -38 15 -48 15 -10 0 -39 11 -63 25 -24 14 -51 28 -59
32 -33 16 -138 120 -153 151 -4 10 -16 31 -27 47 -23 34 -23 34 -41 95 -10 36
-13 166 -13 620 0 565 1 597 30 675 17 43 73 120 126 172 58 58 162 122 198
123 8 1 26 7 40 15 39 22 1299 22 1373 -1z m3880 0 c98 -30 179 -77 241 -140
87 -87 100 -108 137 -216 17 -52 19 -87 19 -389 l0 -331 -42 6 c-24 4 -99 9
-168 12 -135 7 -246 -5 -365 -38 -38 -11 -83 -23 -100 -28 -176 -47 -449 -207
-582 -342 -127 -127 -153 -178 -158 -308 -5 -103 -21 -191 -39 -202 -23 -16
-266 -9 -320 9 -131 42 -204 91 -298 203 -16 18 -28 37 -28 44 0 7 -5 17 -12
24 -15 15 -37 75 -49 134 -6 28 -9 279 -7 615 3 533 4 570 22 608 10 22 26 56
35 75 9 19 21 41 26 49 23 33 138 141 156 146 10 4 19 11 19 16 0 5 8 9 18 9
10 0 27 7 38 15 10 8 28 15 39 15 11 0 31 7 45 15 21 12 130 14 673 15 567 0
655 -2 700 -16z m717 -1247 c139 -45 240 -109 373 -236 202 -194 271 -322 283
-526 12 -189 -32 -355 -141 -525 -94 -147 -194 -220 -301 -220 -72 0 -142 -31
-198 -86 -37 -37 -39 -38 -53 -19 -11 16 -14 40 -10 107 5 95 7 94 -53 48 -51
-39 -175 -105 -245 -130 -33 -12 -69 -25 -80 -30 -11 -4 -58 -20 -105 -35 -47
-15 -104 -40 -127 -56 -56 -39 -126 -120 -174 -201 -22 -38 -44 -68 -49 -68
-25 0 -115 165 -156 285 -24 71 -27 95 -28 220 0 126 2 149 27 228 48 151 159
339 256 431 33 32 40 56 17 56 -8 0 -50 -19 -93 -41 -43 -23 -90 -48 -105 -56
-15 -8 -32 -12 -38 -8 -6 3 -10 49 -10 103 0 263 142 484 423 662 74 46 197
99 262 111 60 12 273 2 325 -14z"/>
<path d="M6988 13559 c-53 -27 -106 -86 -121 -133 -17 -58 -17 -505 1 -565 25
-82 138 -161 232 -161 96 0 201 75 233 165 25 73 25 486 -1 557 -20 56 -69
111 -123 138 -51 27 -168 26 -221 -1z"/>
<path d="M12145 13561 c-52 -24 -91 -63 -115 -119 -18 -41 -20 -67 -20 -297 0
-281 5 -309 68 -372 44 -43 140 -77 200 -70 98 12 187 84 211 172 15 54 14
472 0 533 -15 61 -67 124 -124 151 -57 27 -162 28 -220 2z"/>
<path d="M8957 13170 c-33 -10 -95 -55 -117 -84 -25 -33 -38 -78 -38 -126 0
-90 45 -157 169 -252 244 -186 587 -273 877 -223 112 20 193 40 239 61 17 8
34 14 37 14 17 0 160 76 206 110 126 92 169 134 196 189 9 20 21 44 25 53 13
26 11 60 -6 107 -20 59 -50 98 -99 129 -37 24 -50 27 -131 27 -102 0 -127 -12
-219 -97 -50 -47 -136 -95 -221 -125 -76 -26 -318 -25 -400 2 -74 24 -179 86
-237 140 -67 62 -103 78 -182 81 -39 2 -84 -1 -99 -6z"/>
<path d="M19185 11720 c-168 -17 -252 -27 -415 -49 -67 -9 -255 -44 -325 -61
-248 -57 -313 -74 -365 -90 -14 -5 -52 -16 -85 -26 -94 -27 -327 -104 -362
-120 -17 -8 -36 -14 -43 -14 -6 0 -10 -4 -8 -10 2 -5 462 -471 1023 -1035 561
-564 1118 -1126 1239 -1249 125 -128 224 -222 231 -219 7 2 21 28 29 56 9 29
21 61 26 72 12 29 99 299 119 375 7 25 16 59 21 75 5 17 20 82 35 145 15 63
31 131 35 150 5 19 16 73 25 120 9 47 20 104 25 128 6 23 10 54 10 69 0 15 4
52 10 82 42 246 54 432 54 841 0 397 -4 440 -43 521 -29 60 -108 157 -146 178
-16 9 -32 18 -35 21 -6 7 -73 33 -121 49 -59 18 -716 12 -934 -9z"/>
<path d="M16645 9408 c-145 -28 -220 -52 -349 -113 -147 -69 -237 -134 -367
-265 -142 -143 -287 -391 -316 -540 -2 -14 -8 -34 -13 -45 -5 -11 -11 -38 -14
-60 -37 -260 -32 -378 24 -605 18 -72 91 -251 110 -270 3 -3 14 -21 24 -40 90
-161 220 -306 366 -406 51 -36 133 -84 170 -101 118 -53 142 -63 155 -63 7 0
16 -4 19 -9 3 -5 23 -11 43 -14 21 -3 81 -14 133 -26 130 -29 318 -29 450 0
199 43 192 41 350 112 30 14 173 101 197 121 144 116 178 150 269 272 65 88
109 164 147 254 8 19 20 49 27 65 52 125 73 256 74 455 0 160 -10 277 -25 286
-5 3 -9 17 -9 32 0 15 -9 52 -21 82 -11 30 -23 64 -27 75 -11 38 -96 200 -131
250 -98 141 -205 249 -331 333 -73 50 -221 128 -285 152 -91 33 -118 41 -220
62 -68 14 -388 18 -450 6z"/>
</g>
</svg>
